<svg version="1.2" xmlns="http://www.w3.org/2000/svg" viewBox="0 0 59 20" width="59" height="20">
	<title>PHP-logo-svg</title>
	<defs>
		<clipPath clipPathUnits="userSpaceOnUse" id="cp1">
			<path d="m29.47 19.46c-15.84 0-28.64-4.23-28.64-9.47 0-5.24 12.8-9.47 28.64-9.47 15.83 0 28.64 4.23 28.64 9.47 0 5.24-12.81 9.47-28.64 9.47z"/>
		</clipPath>
		<radialGradient id="g1" cx="0" cy="0" r="1" gradientUnits="userSpaceOnUse" gradientTransform="matrix(37.606,0,0,37.606,18.023,3.85)">
			<stop offset="0" stop-color="#aeb2d5"/>
			<stop offset=".3" stop-color="#aeb2d5"/>
			<stop offset=".75" stop-color="#484c89"/>
			<stop offset="1" stop-color="#484c89"/>
		</radialGradient>
		<clipPath clipPathUnits="userSpaceOnUse" id="cp2">
			<path d="m59.3-0.56v21.1h-59.66v-21.1z"/>
		</clipPath>
		<clipPath clipPathUnits="userSpaceOnUse" id="cp3">
			<path d="m59.3-0.56v21.1h-59.66v-21.1z"/>
		</clipPath>
	</defs>
	<style>
		.s0 { fill: url(#g1) } 
		.s1 { fill: #777bb3 } 
		.s2 { fill: #000000 } 
		.s3 { fill: #ffffff } 
	</style>
	<g id="g3438">
		<g id="g3440">
			<g id="Clip-Path: g3442" clip-path="url(#cp1)">
				<g id="g3442">
					<g id="g3448">
						<g id="g3450">
							<path id="path3462" class="s0" d="m29.5 19.5c-15.9 0-28.7-4.3-28.7-9.5 0-5.2 12.8-9.5 28.7-9.5 15.8 0 28.6 4.3 28.6 9.5 0 5.2-12.8 9.5-28.6 9.5z"/>
						</g>
					</g>
				</g>
			</g>
		</g>
		<g id="g3464">
			<g id="Clip-Path: g3466" clip-path="url(#cp2)">
				<g id="g3466">
					<g id="g3472">
						<path id="path3474" class="s1" d="m29.5 18.8c-15.3 0-27.6-4-27.6-8.8 0-4.9 12.3-8.8 27.6-8.8 15.2 0 27.5 3.9 27.5 8.8 0 4.8-12.3 8.8-27.5 8.8z"/>
					</g>
				</g>
			</g>
		</g>
		<g id="g3476">
			<g id="Clip-Path: g3478" clip-path="url(#cp3)">
				<g id="g3478">
					<g id="g3484">
						<path id="path3486" fill-rule="evenodd" class="s2" d="m9.9 15.5q-0.2 0-0.3-0.1-0.1-0.1 0-0.1l2.9-9.5c0-0.1 0.1-0.2 0.3-0.2h6.3q3 0 4.4 1 1.4 1 0.9 2.8-0.3 0.7-0.8 1.3-0.5 0.6-1.4 1.1-1 0.6-2.3 0.9-1.2 0.3-3.2 0.3h-2.5l-0.8 2.3c0 0.1-0.1 0.2-0.3 0.2zm6.6-4.4q1.9 0 2.7-0.5 0.9-0.4 1.2-1.4 0.3-1-0.2-1.3-0.5-0.4-2.2-0.4h-2l-1.1 3.6z"/>
					</g>
					<g id="g3488">
						<path id="path3490" fill-rule="evenodd" class="s3" d="m23.7 6.5q1.5 1.1 1 2.9-0.3 0.8-0.8 1.4-0.6 0.7-1.5 1.2-1.1 0.6-2.4 0.9-1.3 0.3-3.3 0.3h-2.3l-0.6 2.2c-0.1 0.1-0.4 0.3-0.7 0.3h-3.2q-0.3 0-0.5-0.2-0.2-0.1-0.2-0.3l3-9.5c0-0.2 0.3-0.3 0.6-0.3h6.3q3.1 0 4.6 1.1zm-10.9-0.7l-2.9 9.5h3.2l0.8-2.5h2.8q1.9 0 3.1-0.3 1.2-0.2 2.2-0.8 0.8-0.5 1.3-1.1 0.5-0.5 0.8-1.2 0.5-1.7-0.8-2.7-1.3-0.9-4.2-0.9zm2.8 1.5h2.3q1.9 0 2.5 0.4 0.6 0.5 0.3 1.5-0.4 1.1-1.3 1.6-1 0.5-3 0.5h-2zm-0.5 3.6h1.3q1.8 0 2.6-0.4 0.8-0.4 1.1-1.4 0.2-0.8-0.2-1.1c-0.2-0.1-0.6-0.3-2-0.3h-1.8z"/>
					</g>
					<g id="g3492">
						<path id="path3494" class="s2" d="m31.9 13q-0.1 0-0.2-0.1-0.1-0.1-0.1-0.2l1.3-4.2q0.2-0.6-0.1-0.8c-0.1 0-0.4-0.2-1.4-0.2h-2.3l-1.7 5.3c0 0.1-0.1 0.2-0.3 0.2h-3.2q-0.2 0-0.3-0.1-0.1-0.1 0-0.2l2.9-9.5c0 0 0.1-0.1 0.3-0.1h3.3q0.1 0 0.2 0.1 0.1 0 0.1 0.1l-0.7 2.3h2.5c1.9 0 3.2 0.2 4 0.7q1.1 0.6 0.7 2.1l-1.4 4.4c0 0.1-0.1 0.2-0.3 0.2z"/>
					</g>
					<g id="g3496">
						<path id="path3498" fill-rule="evenodd" class="s3" d="m30.5 3q0.2 0.2 0.2 0.4l-0.7 2h2.2c2 0 3.4 0.2 4.2 0.7q1.3 0.8 0.8 2.3l-1.4 4.4c0 0.2-0.3 0.4-0.6 0.4h-3.3q-0.3 0-0.5-0.2-0.2-0.1-0.1-0.3l1.3-4.2c0.1-0.4 0-0.6 0-0.6 0 0-0.2-0.2-1.2-0.2h-2.1l-1.6 5.1c0 0.2-0.3 0.4-0.6 0.4h-3.2q-0.3 0-0.5-0.2-0.2-0.1-0.2-0.3l3-9.5c0-0.2 0.3-0.3 0.6-0.3h3.3q0.2 0 0.4 0.1zm-3.7 0.3l-2.9 9.5h3.2l1.7-5.5h2.6q1.3 0 1.6 0.3 0.4 0.3 0.2 1l-1.3 4.2h3.3l1.4-4.4q0.4-1.4-0.6-2-1.1-0.6-3.8-0.6h-2.9l0.8-2.5z"/>
					</g>
					<g id="g3500">
						<path id="path3502" fill-rule="evenodd" class="s2" d="m35.5 15.5q-0.1 0-0.2-0.1-0.1-0.1-0.1-0.1l3-9.5c0-0.1 0.1-0.2 0.3-0.2h6.3q3 0 4.4 1 1.4 1 0.8 2.8-0.2 0.7-0.7 1.3-0.6 0.6-1.4 1.1-1.1 0.6-2.3 0.9-1.3 0.3-3.2 0.3h-2.6l-0.7 2.3c0 0.1-0.1 0.2-0.3 0.2zm6.5-4.4q1.9 0 2.8-0.5 0.9-0.4 1.2-1.4 0.3-1-0.2-1.3-0.5-0.4-2.3-0.4h-2l-1.1 3.6z"/>
					</g>
					<g id="g3504">
						<path id="path3506" fill-rule="evenodd" class="s3" d="m49.4 6.5q1.5 1.1 0.9 2.9-0.2 0.8-0.8 1.4-0.5 0.7-1.4 1.2-1.1 0.6-2.4 0.9-1.3 0.3-3.3 0.3h-2.3l-0.7 2.2c0 0.1-0.3 0.3-0.6 0.3h-3.3q-0.3 0-0.5-0.2-0.1-0.1-0.1-0.3l2.9-9.5c0.1-0.2 0.4-0.3 0.7-0.3h6.3q3.1 0 4.6 1.1zm-10.9-0.7l-3 9.5h3.3l0.8-2.5h2.8q1.9 0 3.1-0.3 1.2-0.2 2.2-0.8 0.8-0.5 1.3-1.1 0.5-0.5 0.7-1.2 0.6-1.7-0.8-2.7-1.3-0.9-4.1-0.9zm2.8 1.5h2.3q1.8 0 2.5 0.4 0.6 0.5 0.3 1.5-0.4 1.1-1.4 1.6-0.9 0.5-2.9 0.5h-2zm-0.5 3.6h1.3q1.7 0 2.5-0.4 0.8-0.4 1.1-1.4 0.3-0.8-0.1-1.1c-0.2-0.1-0.7-0.3-2.1-0.3h-1.7z"/>
					</g>
				</g>
			</g>
		</g>
	</g>
</svg>